HIERARCHY
ROOT Hips
{
	OFFSET 0.000000 89.005402 0.000000
	CHANNELS 6 Xposition Yposition Zposition Xrotation Yrotation Zrotation
	JOINT Spine
	{
		OFFSET 0.116900 10.681000 0.373400
		CHANNELS 3 Xrotation Yrotation Zrotation
		JOINT Spine1
		{
			OFFSET 0.000000 13.840401 0.053500
			CHANNELS 3 Xrotation Yrotation Zrotation
			JOINT Spine2
			{
				OFFSET 0.000000 14.712700 -0.366200
				CHANNELS 3 Xrotation Yrotation Zrotation
				JOINT Neck
				{
					OFFSET 0.000000 35.415497 -3.314200
					CHANNELS 3 Xrotation Yrotation Zrotation
					JOINT Head
					{
						OFFSET 0.000000 16.899200 1.218300
						CHANNELS 3 Xrotation Yrotation Zrotation
						JOINT HeadTop_End
						{
							OFFSET 0.000000 22.206207 2.192500
							CHANNELS 3 Xrotation Yrotation Zrotation
							End Site
							{
								OFFSET 0.000000 22.314178 0.000000
							}
						}
					}
				}
				JOINT LeftShoulder
				{
					OFFSET 12.896400 26.716293 -4.548400
					CHANNELS 3 Xrotation Yrotation Zrotation
					JOINT LeftArm
					{
						OFFSET 19.027000 -4.857010 -1.718400
						CHANNELS 3 Xrotation Yrotation Zrotation
						JOINT LeftForeArm
						{
							OFFSET 24.179897 0.000000 0.000000
							CHANNELS 3 Xrotation Yrotation Zrotation
							JOINT LeftHand
							{
								OFFSET 27.156403 0.000000 0.000000
								CHANNELS 3 Xrotation Yrotation Zrotation
								JOINT LeftHandIndex1
								{
									OFFSET 16.441200 0.000000 0.000000
									CHANNELS 3 Xrotation Yrotation Zrotation
									JOINT LeftHandIndex2
									{
										OFFSET 4.821899 0.000000 0.000000
										CHANNELS 3 Xrotation Yrotation Zrotation
										JOINT LeftHandIndex3
										{
											OFFSET 6.386497 0.000000 0.000000
											CHANNELS 3 Xrotation Yrotation Zrotation
											JOINT LeftHandIndex4
											{
												OFFSET 5.188988 0.000000 0.000000
												CHANNELS 3 Xrotation Yrotation Zrotation
												End Site
												{
													OFFSET -0.178703 5.185913 0.000177
												}
											}
										}
									}
								}
								JOINT LeftHandThumb1
								{
									OFFSET 6.534897 -5.032593 5.900300
									CHANNELS 3 Xrotation Yrotation Zrotation
									JOINT LeftHandThumb2
									{
										OFFSET 3.818176 -2.204422 2.204423
										CHANNELS 3 Xrotation Yrotation Zrotation
										JOINT LeftHandThumb3
										{
											OFFSET 3.252098 -1.877594 1.877601
											CHANNELS 3 Xrotation Yrotation Zrotation
											JOINT LeftHandThumb4
											{
												OFFSET 5.251778 -3.032120 3.032117
												CHANNELS 3 Xrotation Yrotation Zrotation
												End Site
												{
													OFFSET 0.000023 6.780014 0.000000
												}
											}
										}
									}
								}
							}
						}
					}
				}
				JOINT RightShoulder
				{
					OFFSET -12.896300 26.716293 -4.548400
					CHANNELS 3 Xrotation Yrotation Zrotation
					JOINT RightArm
					{
						OFFSET -19.027000 -4.857010 -1.718400
						CHANNELS 3 Xrotation Yrotation Zrotation
						JOINT RightForeArm
						{
							OFFSET -24.179897 0.000000 0.000000
							CHANNELS 3 Xrotation Yrotation Zrotation
							JOINT RightHand
							{
								OFFSET -27.156403 0.000000 0.000000
								CHANNELS 3 Xrotation Yrotation Zrotation
								JOINT RightHandThumb1
								{
									OFFSET -6.591202 -4.852203 5.988100
									CHANNELS 3 Xrotation Yrotation Zrotation
									JOINT RightHandThumb2
									{
										OFFSET -3.818176 -2.204422 2.204423
										CHANNELS 3 Xrotation Yrotation Zrotation
										JOINT RightHandThumb3
										{
											OFFSET -3.252098 -1.877594 1.877601
											CHANNELS 3 Xrotation Yrotation Zrotation
											JOINT RightHandThumb4
											{
												OFFSET -5.251778 -3.032120 3.032117
												CHANNELS 3 Xrotation Yrotation Zrotation
												End Site
												{
													OFFSET -0.000023 6.780014 0.000000
												}
											}
										}
									}
								}
								JOINT RightHandIndex1
								{
									OFFSET -16.029404 0.000000 0.000000
									CHANNELS 3 Xrotation Yrotation Zrotation
									JOINT RightHandIndex2
									{
										OFFSET -5.213303 0.000000 0.000000
										CHANNELS 3 Xrotation Yrotation Zrotation
										JOINT RightHandIndex3
										{
											OFFSET -6.386528 0.000000 0.000000
											CHANNELS 3 Xrotation Yrotation Zrotation
											JOINT RightHandIndex4
											{
												OFFSET -5.189026 0.000000 0.000000
												CHANNELS 3 Xrotation Yrotation Zrotation
												End Site
												{
													OFFSET 0.236702 5.183624 0.001972
												}
											}
										}
									}
								}
							}
						}
					}
				}
			}
		}
	}
	JOINT LeftUpLeg
	{
		OFFSET 14.073000 -7.904099 -1.463000
		CHANNELS 3 Xrotation Yrotation Zrotation
		JOINT LeftLeg
		{
			OFFSET -0.109806 -34.073280 4.093200
			CHANNELS 3 Xrotation Yrotation Zrotation
			JOINT LeftFoot
			{
				OFFSET 0.109806 -29.899420 -6.319000
				CHANNELS 3 Xrotation Yrotation Zrotation
				JOINT LeftToeBase
				{
					OFFSET 1.551100 -14.988700 20.535801
					CHANNELS 3 Xrotation Yrotation Zrotation
					JOINT LeftToe_End
					{
						OFFSET 0.221200 0.570800 13.248301
						CHANNELS 3 Xrotation Yrotation Zrotation
						End Site
						{
							OFFSET 0.000000 13.262435 0.000000
						}
					}
				}
			}
		}
	}
	JOINT RightUpLeg
	{
		OFFSET -13.839300 -7.904099 -1.463000
		CHANNELS 3 Xrotation Yrotation Zrotation
		JOINT RightLeg
		{
			OFFSET 0.109694 -34.073219 4.093300
			CHANNELS 3 Xrotation Yrotation Zrotation
			JOINT RightFoot
			{
				OFFSET -0.109694 -29.899384 -6.319200
				CHANNELS 3 Xrotation Yrotation Zrotation
				JOINT RightToeBase
				{
					OFFSET -1.551100 -14.988700 20.535801
					CHANNELS 3 Xrotation Yrotation Zrotation
					JOINT RightToe_End
					{
						OFFSET -0.221200 0.570900 13.248299
						CHANNELS 3 Xrotation Yrotation Zrotation
						End Site
						{
							OFFSET 0.000000 13.262440 0.000000
						}
					}
				}
			}
		}
	}
}
MOTION
Frames: 9
Frame Time: 0.033333
0.422342 87.500168 1.222099 -3.753270 -5.221486 -3.385770 3.303765 1.519461 2.354348 1.146035 0.329156 1.552971 1.123712 0.356192 1.550933 5.622648 -0.077170 0.463898 -7.551130 1.374726 -0.084352 -0.000000 -0.000000 0.000000 1.046096 -17.446007 -12.316926 3.915813 -19.989404 -69.767596 -0.000010 -1.453249 0.000004 -33.228283 -1.359642 -6.191109 0.020434 -0.966550 -7.590924 0.267893 1.752972 -17.376517 0.057692 0.821039 -8.038807 -0.000001 0.000000 0.000001 -0.666103 2.158569 4.837380 11.859642 25.414849 17.056688 -13.811966 3.541903 9.030640 -0.000000 0.000002 0.000002 1.189531 15.344121 14.707064 13.162756 27.550891 58.780950 -0.000001 6.689805 0.000004 -20.174748 -0.523577 6.792872 -1.664522 -0.169110 -4.216932 12.708004 -29.838180 -16.127714 -15.551972 -3.555852 -12.703319 0.000002 -0.000001 0.000002 0.037635 1.264476 6.828366 0.213864 -1.396489 17.412922 0.046096 -0.654329 8.059123 -0.000002 -0.000002 -0.000003 -10.616949 14.621014 11.282155 14.387169 1.678655 4.174001 -0.897511 0.909989 -8.543054 -4.933146 0.000008 -0.000000 -0.000001 -0.000000 -0.000000 4.103900 -10.120583 2.622918 5.689774 -9.454632 -3.261734 -5.213797 -2.101897 4.579093 -7.273475 -0.000003 -0.000001 0.000000 0.000002 0.000000 
0.428492 86.657066 1.202662 -4.366557 -4.988951 -3.245234 3.267628 1.161011 2.734703 1.192140 0.190897 1.574738 1.170763 0.215582 1.573521 5.348768 0.457957 0.416722 -7.170762 2.445464 0.297472 0.000000 -0.000000 0.000000 0.792102 -18.368686 -12.930671 2.152212 -17.833718 -69.122819 -0.000002 -0.613734 0.000011 -37.979639 0.698187 -5.949077 0.061302 -2.241995 -2.097406 0.244078 1.674995 -16.580218 0.082815 0.982614 -9.634937 -0.000000 -0.000000 -0.000001 -0.843777 1.667514 4.496320 12.018533 26.317708 16.343685 -15.046555 5.154688 10.916403 -0.000000 0.000002 -0.000000 1.621038 14.753163 12.953855 10.812900 25.072368 60.153428 0.000000 9.688449 0.000007 -17.421031 -2.526148 11.091830 -1.845050 0.324035 -3.877070 12.676927 -30.405697 -15.602205 -16.073375 -2.675982 -15.449188 -0.000000 -0.000002 -0.000002 0.240649 1.145290 5.230523 0.295064 -1.632924 20.484072 0.074543 -0.830806 10.254152 0.000001 -0.000001 0.000001 -12.682644 10.653668 11.590584 24.725696 3.982247 6.443099 -6.012963 3.985422 -6.821558 -4.242067 -0.000003 -0.000002 0.000000 -0.000000 -0.000000 1.754023 -9.934139 1.932709 12.142310 -9.664312 -3.312843 -8.677928 -2.678875 5.227522 -7.406390 -0.000002 0.000001 0.000000 0.000002 0.000000 
0.645282 85.751083 1.160358 -5.166545 -4.549843 -3.223988 3.605783 0.301102 3.486613 1.286237 -0.092728 1.623215 1.265480 -0.070863 1.623637 5.031097 1.038134 0.403494 -7.157961 3.945286 0.466078 0.000000 -0.000000 0.000001 0.505051 -19.381760 -13.596479 -0.314210 -16.395324 -68.341193 0.000000 -0.082097 -0.000000 -40.646869 1.682581 -4.934818 0.211691 -3.225825 1.225071 0.214962 1.573952 -15.553273 0.107430 1.117942 -10.977635 -0.000000 0.000000 0.000001 -1.021661 1.178315 4.152135 11.807868 26.643706 15.947310 -16.137929 5.685731 13.414883 -0.000000 -0.000001 0.000003 1.966270 14.391904 11.128239 8.107604 22.524509 60.815096 -0.000004 12.945678 0.000008 -15.032372 -3.190226 15.227915 -2.026008 0.815348 -3.534055 12.048183 -29.852127 -15.721265 -16.733576 -0.124372 -19.699671 0.000001 0.000000 0.000002 0.465581 1.238432 2.581320 0.334434 -1.734648 21.824273 0.104509 -0.982115 12.147924 -0.000000 0.000001 -0.000001 -14.734724 6.124467 11.689108 34.208377 7.126862 7.812896 -8.800604 4.742355 -5.310341 -3.832643 0.000479 -0.199978 -0.000000 0.000001 0.000001 0.092930 -9.549309 1.516131 17.595826 -9.598740 -3.663709 -11.551341 -3.927269 6.018033 -7.493629 -0.000004 -0.000002 -0.000000 0.000001 0.000000 
0.996543 85.009750 1.096601 -6.114145 -4.246193 -3.110608 4.388242 -0.791132 4.288648 1.431366 -0.444872 1.683825 1.410460 -0.426017 1.687302 4.687180 1.648980 0.434196 -7.549529 5.787972 0.529173 -0.000000 0.000000 0.000000 0.205134 -20.468914 -14.241768 -3.080573 -16.284633 -67.201658 0.000000 -0.000006 0.000007 -41.707775 1.189004 -4.082971 0.295292 -3.513127 2.014820 0.232412 1.635317 -16.176308 0.131593 1.236010 -12.154188 0.000000 0.000000 0.000001 -1.199707 0.691094 3.804680 11.423208 26.703610 15.700346 -16.853464 5.266768 16.428517 0.000002 0.000002 -0.000003 2.202134 14.275311 9.313494 4.692836 20.326305 60.742874 -0.000007 16.433252 0.000025 -13.477790 -2.558186 18.594838 -2.207397 1.304717 -3.187599 11.164357 -28.790087 -16.098300 -17.119338 2.356007 -23.900191 -0.000001 -0.000001 -0.000003 0.668102 1.450624 -0.061800 0.324708 -1.710148 21.500361 0.134280 -1.111428 13.777440 0.000000 -0.000001 0.000000 -15.724543 1.640377 11.837468 40.222147 8.915448 7.770565 -9.543806 2.353453 -5.996070 -4.553207 0.101899 -2.891102 -0.000000 0.000001 -0.000001 -0.827998 -9.041672 1.046500 21.636600 -9.539753 -4.105768 -13.585589 -5.096160 6.845055 -7.660519 -0.000006 -0.000000 -0.000000 0.000001 0.000000 
1.416366 84.594131 1.063114 -7.039766 -4.551177 -2.823247 5.481785 -1.612508 4.843820 1.601946 -0.721733 1.725253 1.580525 -0.705952 1.732869 4.362018 2.250161 0.512596 -8.229967 7.645727 0.707687 0.000000 0.000000 -0.000000 -0.107081 -21.445016 -14.906837 -5.409010 -17.694846 -65.639764 0.000001 -0.000002 -0.000001 -41.870648 -0.543332 -4.198513 0.224189 -3.262182 1.360721 0.359067 2.021245 -20.144583 0.159998 1.361194 -13.407489 0.000001 0.000000 -0.000002 -1.377912 0.205885 3.453957 10.999542 26.702549 15.486858 -17.358226 4.648931 19.549489 -0.000000 0.000001 0.000002 2.344626 14.280507 7.534490 0.328798 19.060538 60.303378 -0.000010 20.299425 0.000029 -12.600148 -1.305846 21.327204 -2.389194 1.792117 -2.837750 10.527219 -28.189654 -16.203621 -17.263942 3.654593 -27.031093 -0.000001 -0.000001 -0.000002 0.849351 1.656446 -2.299512 0.300652 -1.647826 20.679656 0.162266 -1.219855 15.152729 0.000003 -0.000000 -0.000002 -15.324325 -2.050640 12.371087 41.479968 8.545950 6.598156 -9.125270 -2.518575 -9.415604 -4.840377 0.280522 -4.810841 0.000000 -0.000000 0.000000 -1.200253 -8.491576 0.138012 24.152403 -9.470249 -4.172416 -14.738206 -5.462444 7.470175 -8.164906 -0.000001 -0.000001 -0.000000 0.000001 0.000000 
1.835001 84.586983 1.121563 -7.708292 -5.899079 -2.407298 6.614340 -1.727825 4.917012 1.758588 -0.794206 1.706236 1.737520 -0.781139 1.717558 4.099824 2.801667 0.660182 -8.983440 9.225202 1.257239 0.000000 0.000000 -0.000000 -0.393023 -21.822388 -15.621986 -6.379797 -19.943970 -63.859584 0.000006 -2.533077 -0.000007 -41.112725 -2.751212 -5.172827 0.127816 -2.907800 0.337348 0.631750 2.648215 -26.830366 0.196681 1.506770 -14.873398 0.000002 -0.000001 -0.000003 -1.556341 -0.277332 3.099959 10.518330 26.604806 15.321349 -17.840845 4.117458 22.639106 -0.000000 0.000000 -0.000000 2.425880 14.238736 5.783578 -4.867238 19.180085 60.181630 0.000001 24.817395 0.000007 -11.879648 -0.135388 24.024139 -2.571465 2.277556 -2.484547 10.513096 -28.830550 -15.670855 -17.385529 3.716560 -28.940143 0.000001 0.000001 0.000001 1.054342 1.901066 -4.852792 0.292760 -1.626757 20.403245 0.187907 -1.310869 16.313996 -0.000004 -0.000002 -0.000003 -13.847655 -4.156825 13.106990 39.455558 7.541540 5.539519 -11.783469 -7.099314 -15.001655 -0.511864 0.000001 -0.000003 -0.000000 0.000000 0.000000 -1.323473 -7.887013 -1.429262 25.135972 -9.382241 -3.443130 -15.025511 -4.438121 7.657506 -9.165637 0.000009 0.000000 -0.000000 0.000000 -0.000001 
2.189023 85.005836 1.277801 -7.967003 -8.590734 -1.926291 7.605025 -1.138909 4.363559 1.891913 -0.654402 1.577861 1.872707 -0.642615 1.590926 3.890382 3.316473 0.926453 -9.727131 10.779706 2.320701 -0.000000 -0.000000 0.000001 -0.480789 -20.974881 -16.119678 -5.818243 -21.694479 -62.430299 -0.000003 -9.749114 0.000003 -38.347107 -4.590311 -5.940945 0.018618 -2.749516 -0.780427 0.956139 3.209332 -33.172948 0.237933 1.654206 -16.368528 0.000002 0.000001 0.000001 -1.735007 -0.758578 2.742782 9.998033 26.440986 15.186562 -18.408550 3.071841 26.047913 0.000000 0.000000 0.000001 2.449685 14.169858 4.085356 -10.568416 20.814750 61.002257 0.000002 30.197226 0.000006 -11.188148 0.900591 26.785396 -2.754220 2.761050 -2.128061 11.032612 -30.508389 -14.594132 -17.544449 3.280893 -30.285455 0.000003 0.000003 -0.000003 1.307975 2.326983 -8.131417 0.303623 -1.655615 20.782181 0.212505 -1.392106 17.356496 0.000003 -0.000000 -0.000000 -11.548350 -4.215098 13.492888 33.738157 5.584611 5.297689 -14.345720 -10.168418 -20.030484 0.154239 -0.000004 -0.000003 0.000000 0.000000 0.000000 -1.483028 -7.074565 -3.486212 24.568732 -8.380601 -1.883019 -14.306188 -2.790476 6.995356 -10.399038 -0.000003 0.000000 0.000001 0.000001 -0.000000 
2.455684 85.736656 1.482613 -7.769511 -12.776196 -1.401314 8.393355 -0.245323 3.205861 2.032870 -0.412181 1.310188 2.016325 -0.399494 1.322807 3.666878 3.868468 1.338569 -10.578956 13.106527 3.819145 -0.000000 0.000000 -0.000000 -0.186150 -18.466485 -15.953619 -5.023839 -21.796083 -62.186202 0.000005 -21.356518 0.000000 -32.481043 -5.438605 -5.721198 -0.068380 -2.844589 -1.710141 1.218364 3.577846 -37.600540 0.277843 1.784412 -17.698625 0.000000 -0.000000 0.000002 -1.913959 -1.237828 2.382393 9.582931 26.453721 14.964637 -18.953346 1.217687 29.876470 0.000001 -0.000000 0.000003 2.408336 14.304046 2.461759 -16.596914 23.837261 63.155679 -0.000014 36.420508 0.000025 -10.909591 2.243717 28.982924 -2.937516 3.242563 -1.768238 11.546068 -32.131399 -13.519377 -17.711765 3.279174 -31.980759 -0.000000 -0.000002 0.000004 1.558047 2.866237 -11.124490 0.324865 -1.710536 21.505508 0.238556 -1.472889 18.399029 0.000004 0.000002 -0.000000 -8.894667 -2.491817 12.872996 25.438623 2.403356 6.059578 -13.915538 -13.144457 -22.406774 0.477134 0.000005 -0.000003 -0.000000 0.000002 -0.000000 -1.948258 -5.847289 -5.795950 22.661975 -7.096134 0.197296 -12.533232 -0.217233 5.819718 -11.446269 -0.000005 0.000002 -0.000000 0.000001 0.000000 
2.688879 86.419716 1.697981 -7.085129 -18.380454 -0.903247 8.912836 0.591293 1.765339 2.199704 -0.178088 0.949468 2.185492 -0.163206 0.960302 3.371501 4.522930 1.849288 -11.590895 16.806206 5.440967 -0.000000 0.000000 -0.000000 0.393241 -14.293883 -15.081505 -5.703660 -19.977680 -63.263111 0.000022 -35.410241 0.000024 -23.543085 -5.200880 -5.105711 -0.154863 -3.034608 -2.586636 1.508276 3.924868 -42.029395 0.322011 1.917288 -19.066465 -0.000000 0.000001 0.000002 -2.093162 -1.715051 2.018875 9.335643 26.751710 14.608690 -19.340615 -0.795214 33.718527 -0.000001 0.000001 0.000005 2.334712 14.804471 0.875149 -23.027723 27.960819 66.829808 -0.000011 43.190722 0.000007 -11.436451 4.253332 29.891377 -3.121361 3.722088 -1.405075 11.622826 -32.922311 -12.901047 -17.811340 4.211972 -34.531374 0.000002 0.000001 0.000003 1.705933 3.263920 -12.671967 0.354066 -1.782895 22.464316 0.267089 -1.556001 19.478514 0.000000 0.000000 -0.000000 -6.591234 0.109229 11.214681 17.958229 -0.926534 7.479779 -10.925717 -16.876991 -21.543153 0.652529 0.000004 -0.000001 -0.000000 0.000000 0.000000 -3.583097 -4.319248 -8.110262 21.148882 -7.183669 2.241353 -10.251565 4.263844 5.110295 -12.425602 -0.000007 -0.000002 0.000000 0.000001 0.000000 
